<?xml version="1.0" encoding="UTF-8"?>
<!DOCTYPE svg PUBLIC "-//W3C//DTD SVG 1.1//EN" "http://www.w3.org/Graphics/SVG/1.1/DTD/svg11.dtd">
<svg xmlns="http://www.w3.org/2000/svg" version="1.1" width="500px" height="500px" style="shape-rendering:geometricPrecision; text-rendering:geometricPrecision; image-rendering:optimizeQuality; fill-rule:evenodd; clip-rule:evenodd" xmlns:xlink="http://www.w3.org/1999/xlink">
<g><path style="opacity:0.986" fill="#138fda" d="M 128.5,204.5 C 129.29,205.401 130.29,206.068 131.5,206.5C 132.552,206.351 133.552,206.517 134.5,207C 135.384,208.72 136.717,209.886 138.5,210.5C 138.833,211.5 139.5,212.167 140.5,212.5C 140.833,213.5 141.5,214.167 142.5,214.5C 143.167,214.5 143.5,214.833 143.5,215.5C 143.833,216.5 144.5,217.167 145.5,217.5C 146.167,218.5 146.833,219.5 147.5,220.5C 147.427,222.027 148.094,223.027 149.5,223.5C 151.989,226.746 153.656,230.413 154.5,234.5C 155.369,236.717 155.702,239.05 155.5,241.5C 141.833,241.5 128.167,241.5 114.5,241.5C 113.833,240.167 113.167,238.833 112.5,237.5C 112.167,236.5 111.5,235.833 110.5,235.5C 110.011,234.005 109.345,232.671 108.5,231.5C 108.5,230.5 108.5,229.5 108.5,228.5C 116.684,228.826 124.684,228.492 132.5,227.5C 134.985,226.74 134.985,225.74 132.5,224.5C 131.833,224.5 131.5,224.167 131.5,223.5C 131.167,222.5 130.5,221.833 129.5,221.5C 128.833,221.167 128.167,220.833 127.5,220.5C 126.71,219.599 125.71,218.932 124.5,218.5C 123.209,218.737 122.209,218.404 121.5,217.5C 120.71,216.599 119.71,215.932 118.5,215.5C 117.5,215.5 116.5,215.5 115.5,215.5C 112.644,213.994 109.477,213.328 106,213.5C 102.523,213.328 99.356,213.994 96.5,215.5C 93.3093,216.092 90.3093,217.259 87.5,219C 86.2264,219.977 86.2264,220.811 87.5,221.5C 87.7497,223.674 88.7497,225.341 90.5,226.5C 90.3284,227.492 90.6618,228.158 91.5,228.5C 91.427,230.027 92.0937,231.027 93.5,231.5C 93.5,231.833 93.5,232.167 93.5,232.5C 93.9321,233.71 94.5987,234.71 95.5,235.5C 97.8268,238.526 99.8268,241.859 101.5,245.5C 102.714,248.129 102.714,250.796 101.5,253.5C 100.094,253.973 99.427,254.973 99.5,256.5C 99.1667,257.167 98.8333,257.833 98.5,258.5C 97.5,258.833 96.8333,259.5 96.5,260.5C 96.5,260.833 96.5,261.167 96.5,261.5C 94.412,263.336 93.0787,265.669 92.5,268.5C 91.0937,268.973 90.427,269.973 90.5,271.5C 89.2632,272.965 88.2632,274.632 87.5,276.5C 86.5987,277.29 85.9321,278.29 85.5,279.5C 85.5,279.833 85.5,280.167 85.5,280.5C 84.0256,281.436 83.0256,282.77 82.5,284.5C 82.5,284.833 82.5,285.167 82.5,285.5C 81.1733,286.8 79.84,288.133 78.5,289.5C 77.0603,288.048 75.3936,287.048 73.5,286.5C 59.8094,273.227 54.4761,256.893 57.5,237.5C 60.5,237.833 62.1667,239.5 62.5,242.5C 62.8333,243.5 63.5,244.167 64.5,244.5C 64.8333,245.167 65.1667,245.833 65.5,246.5C 65.427,248.027 66.0937,249.027 67.5,249.5C 68.1667,250.833 68.8333,252.167 69.5,253.5C 69.427,255.027 70.0937,256.027 71.5,256.5C 71.5,256.833 71.5,257.167 71.5,257.5C 71.8333,258.5 72.5,259.167 73.5,259.5C 74.7945,261.473 76.1278,263.473 77.5,265.5C 79.5105,261.818 81.8438,258.318 84.5,255C 86.2327,249.291 85.2327,244.125 81.5,239.5C 81.1667,238.5 80.5,237.833 79.5,237.5C 79.2501,235.059 78.2501,233.059 76.5,231.5C 76.0679,230.29 75.4013,229.29 74.5,228.5C 72.4344,225.549 70.4344,222.382 68.5,219C 78.23,206.699 91.0633,200.199 107,199.5C 114.683,199.461 121.85,201.128 128.5,204.5 Z"/></g>
<g><path style="opacity:0.994" fill="#0d8eda" d="M 185.5,200.5 C 186.833,200.5 188.167,200.5 189.5,200.5C 189.5,233.167 189.5,265.833 189.5,298.5C 188.167,298.5 186.833,298.5 185.5,298.5C 185.437,266.022 185.437,233.355 185.5,200.5 Z"/></g>
<g><path style="opacity:0.996" fill="#30a1db" d="M 185.5,200.5 C 186.919,199.549 188.585,199.216 190.5,199.5C 190.227,201.451 190.893,202.951 192.5,204C 191.244,204.417 190.577,205.25 190.5,206.5C 190.5,209.5 190.5,212.5 190.5,215.5C 190.5,220.833 190.5,226.167 190.5,231.5C 190.5,236.5 190.5,241.5 190.5,246.5C 190.5,262.167 190.5,277.833 190.5,293.5C 190.5,294.5 190.5,295.5 190.5,296.5C 190.5,297.5 190.5,298.5 190.5,299.5C 188.585,299.784 186.919,299.451 185.5,298.5C 186.833,298.5 188.167,298.5 189.5,298.5C 189.5,265.833 189.5,233.167 189.5,200.5C 188.167,200.5 186.833,200.5 185.5,200.5 Z"/></g>
<g><path style="opacity:0.012" fill="#88cedf" d="M 128.5,204.5 C 130.179,204.285 131.179,204.952 131.5,206.5C 130.29,206.068 129.29,205.401 128.5,204.5 Z"/></g>
<g><path style="opacity:0.004" fill="#abe2e0" d="M 190.5,206.5 C 191.765,207.514 192.431,209.014 192.5,211C 192.431,212.986 191.765,214.486 190.5,215.5C 190.5,212.5 190.5,209.5 190.5,206.5 Z"/></g>
<g><path style="opacity:0.027" fill="#9cd9e0" d="M 138.5,210.5 C 139.833,210.5 140.5,211.167 140.5,212.5C 139.5,212.167 138.833,211.5 138.5,210.5 Z"/></g>
<g><path style="opacity:0.055" fill="#92d4df" d="M 140.5,212.5 C 141.833,212.5 142.5,213.167 142.5,214.5C 141.5,214.167 140.833,213.5 140.5,212.5 Z"/></g>
<g><path style="opacity:0.986" fill="#87cedf" d="M 115.5,215.5 C 109.178,214.354 102.845,214.354 96.5,215.5C 99.356,213.994 102.523,213.328 106,213.5C 109.477,213.328 112.644,213.994 115.5,215.5 Z"/></g>
<g><path style="opacity:0.958" fill="#1a92da" d="M 240.5,215.5 C 240.427,217.027 241.094,218.027 242.5,218.5C 242.93,221.862 241.93,224.695 239.5,227C 240.373,228.045 241.373,228.878 242.5,229.5C 243.404,230.209 243.737,231.209 243.5,232.5C 243.5,234.167 243.5,235.833 243.5,237.5C 242.146,239.696 240.146,241.196 237.5,242C 232.177,242.499 226.844,242.666 221.5,242.5C 221.5,233.167 221.5,223.833 221.5,214.5C 227.923,214.209 234.256,214.542 240.5,215.5 Z M 228.5,218.5 C 230.5,218.5 232.5,218.5 234.5,218.5C 234.5,219.833 235.167,220.5 236.5,220.5C 237.404,221.209 237.737,222.209 237.5,223.5C 234.57,224.299 231.57,224.632 228.5,224.5C 228.5,222.5 228.5,220.5 228.5,218.5 Z M 237.5,231.5 C 238.091,232.151 238.757,232.818 239.5,233.5C 238.306,234.799 237.306,236.132 236.5,237.5C 233.833,237.5 231.167,237.5 228.5,237.5C 228.5,235.5 228.5,233.5 228.5,231.5C 231.5,231.5 234.5,231.5 237.5,231.5 Z"/></g>
<g><path style="opacity:0.977" fill="#2193da" d="M 272.5,215.5 C 272.833,216.5 273.5,217.167 274.5,217.5C 274.5,217.833 274.5,218.167 274.5,218.5C 275.833,221.167 275.833,223.833 274.5,226.5C 273.549,228.118 272.216,229.451 270.5,230.5C 271.275,232.396 272.275,234.063 273.5,235.5C 274.434,236.568 274.768,237.901 274.5,239.5C 274.804,240.15 275.137,240.817 275.5,241.5C 273.955,242.452 272.288,242.785 270.5,242.5C 268.563,239.346 267.23,236.012 266.5,232.5C 264.365,230.631 261.698,229.964 258.5,230.5C 258.5,234.5 258.5,238.5 258.5,242.5C 257.167,242.5 255.833,242.5 254.5,242.5C 254.5,233.167 254.5,223.833 254.5,214.5C 260.591,214.211 266.591,214.545 272.5,215.5 Z M 267.5,218.5 C 267.5,219.833 268.167,220.5 269.5,220.5C 270.817,222.287 270.484,223.954 268.5,225.5C 265.914,226.48 263.247,226.813 260.5,226.5C 260.5,223.833 260.5,221.167 260.5,218.5C 262.833,218.5 265.167,218.5 267.5,218.5 Z"/></g>
<g><path style="opacity:0.957" fill="#1c92da" d="M 299.5,214.5 C 299.427,216.027 300.094,217.027 301.5,217.5C 301.5,217.833 301.5,218.167 301.5,218.5C 301.796,220.403 302.463,222.07 303.5,223.5C 303.62,226.578 304.62,229.245 306.5,231.5C 307.434,232.568 307.768,233.901 307.5,235.5C 307.66,237.153 308.326,238.486 309.5,239.5C 309.5,240.5 309.5,241.5 309.5,242.5C 307.833,242.5 306.167,242.5 304.5,242.5C 303.833,240.833 303.167,239.167 302.5,237.5C 298.702,236.517 294.702,236.183 290.5,236.5C 290.167,238.5 289.833,240.5 289.5,242.5C 287.833,242.5 286.167,242.5 284.5,242.5C 287.683,233.226 290.683,223.892 293.5,214.5C 295.5,214.5 297.5,214.5 299.5,214.5 Z M 298.5,224.5 C 298.674,226.861 299.007,229.194 299.5,231.5C 298.167,231.5 296.833,231.5 295.5,231.5C 295.34,229.801 295.506,228.134 296,226.5C 296.417,225.244 297.25,224.577 298.5,224.5 Z"/></g>
<g><path style="opacity:0.931" fill="#1791da" d="M 319.5,214.5 C 322.167,214.5 324.833,214.5 327.5,214.5C 327.796,216.403 328.463,218.07 329.5,219.5C 329.5,219.833 329.5,220.167 329.5,220.5C 329.742,224.479 330.742,228.146 332.5,231.5C 332.709,232.922 333.209,234.255 334,235.5C 335.128,233.655 335.628,231.655 335.5,229.5C 337.124,224.583 338.457,219.583 339.5,214.5C 342.5,214.5 345.5,214.5 348.5,214.5C 348.5,223.833 348.5,233.167 348.5,242.5C 346.833,242.5 345.167,242.5 343.5,242.5C 343.5,238.167 343.5,233.833 343.5,229.5C 343.665,225.818 343.499,222.152 343,218.5C 340.316,226.382 338.149,234.382 336.5,242.5C 334.833,242.5 333.167,242.5 331.5,242.5C 329.529,237.289 327.862,231.956 326.5,226.5C 326.174,223.689 325.341,221.022 324,218.5C 323.5,226.493 323.334,234.493 323.5,242.5C 322.167,242.5 320.833,242.5 319.5,242.5C 319.5,233.167 319.5,223.833 319.5,214.5 Z"/></g>
<g><path style="opacity:0.151" fill="#abe2e0" d="M 348.5,214.5 C 349.494,223.986 349.827,233.652 349.5,243.5C 347.265,243.795 345.265,243.461 343.5,242.5C 345.167,242.5 346.833,242.5 348.5,242.5C 348.5,233.167 348.5,223.833 348.5,214.5 Z"/></g>
<g><path style="opacity:0.039" fill="#9cd9e0" d="M 143.5,215.5 C 144.833,215.5 145.5,216.167 145.5,217.5C 144.5,217.167 143.833,216.5 143.5,215.5 Z"/></g>
<g><path style="opacity:0.004" fill="#9cd9e0" d="M 240.5,215.5 C 242.048,215.821 242.715,216.821 242.5,218.5C 241.094,218.027 240.427,217.027 240.5,215.5 Z"/></g>
<g><path style="opacity:0.004" fill="#94d5e0" d="M 272.5,215.5 C 273.833,215.5 274.5,216.167 274.5,217.5C 273.5,217.167 272.833,216.5 272.5,215.5 Z"/></g>
<g><path style="opacity:0.757" fill="#6bbade" d="M 299.5,214.5 C 301.048,214.821 301.715,215.821 301.5,217.5C 300.094,217.027 299.427,216.027 299.5,214.5 Z"/></g>
<g><path style="opacity:0.163" fill="#9edae0" d="M 327.5,214.5 C 329.213,215.635 329.88,217.302 329.5,219.5C 328.463,218.07 327.796,216.403 327.5,214.5 Z"/></g>
<g><path style="opacity:0.071" fill="#a3dde0" d="M 118.5,215.5 C 119.71,215.932 120.71,216.599 121.5,217.5C 119.821,217.715 118.821,217.048 118.5,215.5 Z"/></g>
<g><path style="opacity:0.314" fill="#9edae0" d="M 96.5,215.5 C 93.423,217.218 90.423,219.218 87.5,221.5C 86.2264,220.811 86.2264,219.977 87.5,219C 90.3093,217.259 93.3093,216.092 96.5,215.5 Z"/></g>
<g><path style="opacity:0.119" fill="#9edae0" d="M 228.5,218.5 C 228.5,220.5 228.5,222.5 228.5,224.5C 231.57,224.632 234.57,224.299 237.5,223.5C 237.389,224.117 237.056,224.617 236.5,225C 233.183,225.498 229.85,225.665 226.5,225.5C 225.99,222.612 226.656,220.279 228.5,218.5 Z"/></g>
<g><path style="opacity:0.25" fill="#a7dfe0" d="M 274.5,218.5 C 275.748,219.334 276.415,220.667 276.5,222.5C 276.415,224.333 275.748,225.666 274.5,226.5C 275.833,223.833 275.833,221.167 274.5,218.5 Z"/></g>
<g><path style="opacity:0.234" fill="#9fdbe0" d="M 301.5,218.5 C 303.256,219.552 303.923,221.219 303.5,223.5C 302.463,222.07 301.796,220.403 301.5,218.5 Z"/></g>
<g><path style="opacity:0.035" fill="#9fdbe0" d="M 124.5,218.5 C 125.71,218.932 126.71,219.599 127.5,220.5C 125.821,220.715 124.821,220.048 124.5,218.5 Z"/></g>
<g><path style="opacity:0.388" fill="#a6dee0" d="M 234.5,218.5 C 235.5,218.833 236.167,219.5 236.5,220.5C 235.167,220.5 234.5,219.833 234.5,218.5 Z"/></g>
<g><path style="opacity:0.316" fill="#a6dee0" d="M 267.5,218.5 C 268.5,218.833 269.167,219.5 269.5,220.5C 268.167,220.5 267.5,219.833 267.5,218.5 Z"/></g>
<g><path style="opacity:0.789" fill="#70c3de" d="M 319.5,214.5 C 319.5,223.833 319.5,233.167 319.5,242.5C 320.833,242.5 322.167,242.5 323.5,242.5C 323.334,234.493 323.5,226.493 324,218.5C 325.341,221.022 326.174,223.689 326.5,226.5C 324.55,231.735 323.883,237.402 324.5,243.5C 322.5,243.5 320.5,243.5 318.5,243.5C 318.173,233.652 318.506,223.986 319.5,214.5 Z"/></g>
<g><path style="opacity:0.06" fill="#9cd9e0" d="M 298.5,224.5 C 297.25,224.577 296.417,225.244 296,226.5C 295.506,228.134 295.34,229.801 295.5,231.5C 294.508,231.672 293.842,231.338 293.5,230.5C 294.16,226.687 295.326,223.021 297,219.5C 298.009,221.025 298.509,222.692 298.5,224.5 Z"/></g>
<g><path style="opacity:0.314" fill="#90d1df" d="M 329.5,220.5 C 330.693,220.97 331.36,221.97 331.5,223.5C 332.095,226.14 332.428,228.807 332.5,231.5C 330.742,228.146 329.742,224.479 329.5,220.5 Z"/></g>
<g><path style="opacity:0.191" fill="#9dd9e0" d="M 343.5,229.5 C 342.371,230.47 341.371,231.636 340.5,233C 339.79,236.626 338.79,240.126 337.5,243.5C 335.265,243.795 333.265,243.461 331.5,242.5C 333.167,242.5 334.833,242.5 336.5,242.5C 338.149,234.382 340.316,226.382 343,218.5C 343.499,222.152 343.665,225.818 343.5,229.5 Z"/></g>
<g><path style="opacity:0.255" fill="#9edae0" d="M 87.5,221.5 C 89.4077,222.486 90.4077,224.152 90.5,226.5C 88.7497,225.341 87.7497,223.674 87.5,221.5 Z"/></g>
<g><path style="opacity:0.235" fill="#89cfdf" d="M 129.5,221.5 C 130.5,221.833 131.167,222.5 131.5,223.5C 130.167,223.5 129.5,222.833 129.5,221.5 Z"/></g>
<g><path style="opacity:0.11" fill="#61b7dd" d="M 147.5,220.5 C 148.906,220.973 149.573,221.973 149.5,223.5C 148.094,223.027 147.427,222.027 147.5,220.5 Z"/></g>
<g><path style="opacity:0.248" fill="#a7dfe0" d="M 242.5,218.5 C 243.335,221.994 243.335,225.66 242.5,229.5C 241.373,228.878 240.373,228.045 239.5,227C 241.93,224.695 242.93,221.862 242.5,218.5 Z"/></g>
<g><path style="opacity:0.038" fill="#96d6e0" d="M 132.5,224.5 C 134.985,225.74 134.985,226.74 132.5,227.5C 132.5,226.5 132.5,225.5 132.5,224.5 Z"/></g>
<g><path style="opacity:0.242" fill="#97d5e0" d="M 303.5,223.5 C 305.515,225.707 306.515,228.374 306.5,231.5C 304.62,229.245 303.62,226.578 303.5,223.5 Z"/></g>
<g><path style="opacity:0.996" fill="#6eb8de" d="M 108.5,228.5 C 108.5,229.5 108.5,230.5 108.5,231.5C 106.443,229.957 106.443,228.957 108.5,228.5 Z"/></g>
<g><path style="opacity:0.012" fill="#99d8e0" d="M 74.5,228.5 C 75.4013,229.29 76.0679,230.29 76.5,231.5C 74.9519,231.179 74.2852,230.179 74.5,228.5 Z"/></g>
<g><path style="opacity:0.062" fill="#9bd8e0" d="M 274.5,226.5 C 273.841,229.455 273.508,232.455 273.5,235.5C 272.275,234.063 271.275,232.396 270.5,230.5C 272.216,229.451 273.549,228.118 274.5,226.5 Z"/></g>
<g><path style="opacity:0.004" fill="#99d8e0" d="M 91.5,228.5 C 92.9063,228.973 93.573,229.973 93.5,231.5C 92.0937,231.027 91.427,230.027 91.5,228.5 Z"/></g>
<g><path style="opacity:0.353" fill="#abe1e0" d="M 236.5,230.5 C 237.167,230.5 237.5,230.833 237.5,231.5C 234.5,231.5 231.5,231.5 228.5,231.5C 228.5,233.5 228.5,235.5 228.5,237.5C 227.532,235.393 227.198,233.059 227.5,230.5C 230.5,230.5 233.5,230.5 236.5,230.5 Z"/></g>
<g><path style="opacity:0.004" fill="#abe2e0" d="M 190.5,231.5 C 191.809,233.571 192.475,236.071 192.5,239C 192.475,241.929 191.809,244.429 190.5,246.5C 190.5,241.5 190.5,236.5 190.5,231.5 Z"/></g>
<g><path style="opacity:0.996" fill="#5ab5dd" d="M 266.5,232.5 C 264.435,232.483 262.435,232.15 260.5,231.5C 259.833,235.167 259.167,238.833 258.5,242.5C 258.5,238.5 258.5,234.5 258.5,230.5C 261.698,229.964 264.365,230.631 266.5,232.5 Z"/></g>
<g><path style="opacity:0.221" fill="#abe2e0" d="M 260.5,231.5 C 260.5,235.5 260.5,239.5 260.5,243.5C 258.265,243.795 256.265,243.461 254.5,242.5C 255.833,242.5 257.167,242.5 258.5,242.5C 259.167,238.833 259.833,235.167 260.5,231.5 Z"/></g>
<g><path style="opacity:0.097" fill="#6fc2de" d="M 298.5,224.5 C 303.567,231.814 301.567,234.147 292.5,231.5C 292.624,230.893 292.957,230.56 293.5,230.5C 293.842,231.338 294.508,231.672 295.5,231.5C 296.833,231.5 298.167,231.5 299.5,231.5C 299.007,229.194 298.674,226.861 298.5,224.5 Z"/></g>
<g><path style="opacity:0.02" fill="#99d8e0" d="M 93.5,232.5 C 95.0481,232.821 95.7148,233.821 95.5,235.5C 94.5987,234.71 93.9321,233.71 93.5,232.5 Z"/></g>
<g><path style="opacity:0.009" fill="#a9e0e0" d="M 243.5,232.5 C 244.649,232.791 245.316,233.624 245.5,235C 245.316,236.376 244.649,237.209 243.5,237.5C 243.5,235.833 243.5,234.167 243.5,232.5 Z"/></g>
<g><path style="opacity:0.537" fill="#7cc5df" d="M 335.5,229.5 C 335.628,231.655 335.128,233.655 334,235.5C 333.209,234.255 332.709,232.922 332.5,231.5C 333.778,231.218 334.778,230.551 335.5,229.5 Z"/></g>
<g><path style="opacity:0.012" fill="#a1dce0" d="M 110.5,235.5 C 111.5,235.833 112.167,236.5 112.5,237.5C 111.167,237.5 110.5,236.833 110.5,235.5 Z"/></g>
<g><path style="opacity:0.295" fill="#a1dce0" d="M 307.5,235.5 C 309.176,236.183 309.843,237.517 309.5,239.5C 308.326,238.486 307.66,237.153 307.5,235.5 Z"/></g>
<g><path style="opacity:0.493" fill="#a7dfe0" d="M 302.5,237.5 C 299.167,237.5 295.833,237.5 292.5,237.5C 291.833,239.5 291.167,241.5 290.5,243.5C 288.265,243.795 286.265,243.461 284.5,242.5C 286.167,242.5 287.833,242.5 289.5,242.5C 289.833,240.5 290.167,238.5 290.5,236.5C 294.702,236.183 298.702,236.517 302.5,237.5 Z"/></g>
<g><path style="opacity:0.19" fill="#72c4de" d="M 236.5,230.5 C 233.5,230.5 230.5,230.5 227.5,230.5C 227.198,233.059 227.532,235.393 228.5,237.5C 231.167,237.5 233.833,237.5 236.5,237.5C 233.375,238.479 230.042,238.813 226.5,238.5C 226.5,235.5 226.5,232.5 226.5,229.5C 230.042,229.187 233.375,229.521 236.5,230.5 Z"/></g>
<g><path style="opacity:0.024" fill="#98d7e0" d="M 79.5,237.5 C 80.5,237.833 81.1667,238.5 81.5,239.5C 80.1667,239.5 79.5,238.833 79.5,237.5 Z"/></g>
<g><path style="opacity:0.972" fill="#aae1e0" d="M 154.5,234.5 C 156.369,236.635 157.036,239.302 156.5,242.5C 142.323,242.829 128.323,242.496 114.5,241.5C 128.167,241.5 141.833,241.5 155.5,241.5C 155.702,239.05 155.369,236.717 154.5,234.5 Z"/></g>
<g><path style="opacity:0.137" fill="#98d7e0" d="M 62.5,242.5 C 63.8333,242.5 64.5,243.167 64.5,244.5C 63.5,244.167 62.8333,243.5 62.5,242.5 Z"/></g>
<g><path style="opacity:0.571" fill="#a8dfe0" d="M 243.5,237.5 C 243.75,240.505 242.417,242.338 239.5,243C 233.319,243.819 227.319,243.653 221.5,242.5C 226.844,242.666 232.177,242.499 237.5,242C 240.146,241.196 242.146,239.696 243.5,237.5 Z"/></g>
<g><path style="opacity:0.601" fill="#a7dfe0" d="M 274.5,239.5 C 276.176,240.183 276.843,241.517 276.5,243.5C 274.265,243.795 272.265,243.461 270.5,242.5C 272.288,242.785 273.955,242.452 275.5,241.5C 275.137,240.817 274.804,240.15 274.5,239.5 Z"/></g>
<g><path style="opacity:0.616" fill="#aae1e0" d="M 309.5,239.5 C 310.434,240.568 310.768,241.901 310.5,243.5C 308.265,243.795 306.265,243.461 304.5,242.5C 306.167,242.5 307.833,242.5 309.5,242.5C 309.5,241.5 309.5,240.5 309.5,239.5 Z"/></g>
<g><path style="opacity:0.008" fill="#9fdae0" d="M 65.5,246.5 C 67.0481,246.821 67.7148,247.821 67.5,249.5C 66.0937,249.027 65.427,248.027 65.5,246.5 Z"/></g>
<g><path style="opacity:0.232" fill="#a0dbe0" d="M 101.5,245.5 C 103.302,246.315 104.302,247.815 104.5,250C 104.293,251.95 103.293,253.116 101.5,253.5C 102.714,250.796 102.714,248.129 101.5,245.5 Z"/></g>
<g><path style="opacity:0.035" fill="#a0dbe0" d="M 101.5,253.5 C 101.715,255.179 101.048,256.179 99.5,256.5C 99.427,254.973 100.094,253.973 101.5,253.5 Z"/></g>
<g><path style="opacity:0.004" fill="#83ccdf" d="M 69.5,253.5 C 70.9063,253.973 71.573,254.973 71.5,256.5C 70.0937,256.027 69.427,255.027 69.5,253.5 Z"/></g>
<g><path style="opacity:0.945" fill="#018dda" d="M 219.5,256.5 C 224.167,256.5 228.833,256.5 233.5,256.5C 232.082,258.308 230.082,258.975 227.5,258.5C 227.827,263.544 227.494,268.544 226.5,273.5C 225.833,268.349 225.166,263.349 224.5,258.5C 222.219,258.923 220.552,258.256 219.5,256.5 Z"/></g>
<g><path style="opacity:0.966" fill="#008dda" d="M 250.5,256.5 C 248.012,258.388 245.012,259.055 241.5,258.5C 241.077,260.781 241.744,262.448 243.5,263.5C 245.5,264.167 247.5,264.833 249.5,265.5C 246.833,265.5 244.167,265.5 241.5,265.5C 241.5,267.5 241.5,269.5 241.5,271.5C 244.5,271.5 247.5,271.5 250.5,271.5C 247.316,273.414 243.649,274.08 239.5,273.5C 239.5,267.833 239.5,262.167 239.5,256.5C 243.167,256.5 246.833,256.5 250.5,256.5 Z"/></g>
<g><path style="opacity:0.963" fill="#3b9cdb" d="M 268.5,256.5 C 269.167,257.833 270.167,258.833 271.5,259.5C 271.5,260.5 271.5,261.5 271.5,262.5C 269.801,262.473 268.467,261.806 267.5,260.5C 266.866,259.053 265.699,258.387 264,258.5C 262.301,258.387 261.134,259.053 260.5,260.5C 260.5,263.167 260.5,265.833 260.5,268.5C 260.833,269.5 261.5,270.167 262.5,270.5C 265.882,270.274 268.882,269.274 271.5,267.5C 271.768,269.099 271.434,270.432 270.5,271.5C 267.418,273.181 264.085,273.848 260.5,273.5C 259.526,272.365 258.359,271.365 257,270.5C 256.271,266.623 256.438,262.789 257.5,259C 257.905,258.055 258.572,257.388 259.5,257C 262.482,256.502 265.482,256.335 268.5,256.5 Z"/></g>
<g><path style="opacity:0.016" fill="#92d4df" d="M 268.5,256.5 C 270.5,256.5 271.5,257.5 271.5,259.5C 270.167,258.833 269.167,257.833 268.5,256.5 Z"/></g>
<g><path style="opacity:0.968" fill="#1c92da" d="M 281.5,256.5 C 281.5,258.833 281.5,261.167 281.5,263.5C 282.5,263.5 283.5,263.5 284.5,263.5C 284.833,264.833 285.167,264.833 285.5,263.5C 286.5,263.5 287.5,263.5 288.5,263.5C 288.5,262.167 288.5,260.833 288.5,259.5C 289.692,258.434 289.359,257.601 287.5,257C 288.448,256.517 289.448,256.351 290.5,256.5C 291.164,259.146 291.498,261.979 291.5,265C 291.481,268.252 290.814,271.085 289.5,273.5C 289.423,272.25 288.756,271.417 287.5,271C 289.359,270.399 289.692,269.566 288.5,268.5C 288.5,267.833 288.5,267.167 288.5,266.5C 286.052,265.527 283.385,265.194 280.5,265.5C 281.036,268.698 280.369,271.365 278.5,273.5C 278.5,267.833 278.5,262.167 278.5,256.5C 279.5,256.5 280.5,256.5 281.5,256.5 Z"/></g>
<g><path style="opacity:0.029" fill="#abe2e0" d="M 281.5,256.5 C 282.105,258.974 283.105,261.307 284.5,263.5C 283.5,263.5 282.5,263.5 281.5,263.5C 281.5,261.167 281.5,258.833 281.5,256.5 Z"/></g>
<g><path style="opacity:0.006" fill="#a2dde0" d="M 289.5,273.5 C 290.814,271.085 291.481,268.252 291.5,265C 291.498,261.979 291.164,259.146 290.5,256.5C 291.095,253.887 291.929,253.887 293,256.5C 293.697,262.537 293.53,268.537 292.5,274.5C 291.209,274.737 290.209,274.404 289.5,273.5 Z"/></g>
<g><path style="opacity:0.975" fill="#2a97da" d="M 302.5,256.5 C 302.932,257.71 303.599,258.71 304.5,259.5C 304.932,260.71 305.599,261.71 306.5,262.5C 307.338,262.842 307.672,263.508 307.5,264.5C 308.728,269.66 309.395,269.66 309.5,264.5C 309.5,261.833 309.5,259.167 309.5,256.5C 310.5,256.5 311.5,256.5 312.5,256.5C 312.5,262.167 312.5,267.833 312.5,273.5C 308.621,274.652 306.621,272.986 306.5,268.5C 304.759,266.023 303.259,263.356 302,260.5C 301.501,264.821 301.334,269.154 301.5,273.5C 300.5,273.5 299.5,273.5 298.5,273.5C 298.5,267.833 298.5,262.167 298.5,256.5C 299.833,256.5 301.167,256.5 302.5,256.5 Z"/></g>
<g><path style="opacity:0.269" fill="#96d6e0" d="M 302.5,256.5 C 304.048,256.821 304.715,257.821 304.5,259.5C 303.599,258.71 302.932,257.71 302.5,256.5 Z"/></g>
<g><path style="opacity:0.057" fill="#abe1e1" d="M 312.5,256.5 C 313.814,258.915 314.481,261.748 314.5,265C 314.481,268.252 313.814,271.085 312.5,273.5C 312.5,267.833 312.5,262.167 312.5,256.5 Z"/></g>
<g><path style="opacity:0.931" fill="#3b9ddb" d="M 332.5,257.5 C 332.833,258.5 333.5,259.167 334.5,259.5C 335.404,260.209 335.737,261.209 335.5,262.5C 335.5,264.167 335.5,265.833 335.5,267.5C 335.737,268.791 335.404,269.791 334.5,270.5C 333.167,271.167 332.167,272.167 331.5,273.5C 329.034,274.634 326.367,274.801 323.5,274C 321.944,273.28 320.944,272.113 320.5,270.5C 319.586,267.272 319.253,263.939 319.5,260.5C 320.249,259.469 320.915,258.302 321.5,257C 325.358,256.19 329.024,256.357 332.5,257.5 Z M 330.5,260.5 C 331.473,262.948 331.806,265.615 331.5,268.5C 330.167,268.5 329.5,269.167 329.5,270.5C 327.114,270.741 325.114,270.075 323.5,268.5C 322.659,264.415 323.992,261.415 327.5,259.5C 328.417,260.127 329.417,260.461 330.5,260.5 Z"/></g>
<g><path style="opacity:0.988" fill="#008dda" d="M 344.5,256.5 C 344.5,261.5 344.5,266.5 344.5,271.5C 347.167,271.5 349.833,271.5 352.5,271.5C 349.663,273.402 346.329,274.069 342.5,273.5C 341.883,267.402 342.55,261.735 344.5,256.5 Z"/></g>
<g><path style="opacity:0.958" fill="#2596da" d="M 371.5,257.5 C 371.833,258.5 372.5,259.167 373.5,259.5C 374.473,261.948 374.806,264.615 374.5,267.5C 372.247,272.627 368.247,274.627 362.5,273.5C 361.71,272.599 360.71,271.932 359.5,271.5C 359.5,271.167 359.5,270.833 359.5,270.5C 359.068,269.29 358.401,268.29 357.5,267.5C 357.016,256.833 361.683,253.5 371.5,257.5 Z M 369.5,260.5 C 370.473,262.948 370.806,265.615 370.5,268.5C 369.167,268.5 368.5,269.167 368.5,270.5C 368.167,270.5 367.833,270.5 367.5,270.5C 365.857,270.52 364.524,269.853 363.5,268.5C 362.52,265.914 362.187,263.247 362.5,260.5C 364.882,259.454 367.215,259.454 369.5,260.5 Z"/></g>
<g><path style="opacity:0.901" fill="#2996da" d="M 395.5,259.5 C 395.179,261.048 394.179,261.715 392.5,261.5C 392.5,260.833 392.167,260.5 391.5,260.5C 389.121,257.86 386.621,257.86 384,260.5C 383.199,263.367 383.366,266.034 384.5,268.5C 385.92,271.349 387.92,272.016 390.5,270.5C 391.833,270.5 392.5,269.833 392.5,268.5C 393.043,268.44 393.376,268.107 393.5,267.5C 392.311,266.571 390.978,266.238 389.5,266.5C 389.328,265.508 389.662,264.842 390.5,264.5C 392.167,264.5 393.833,264.5 395.5,264.5C 396.055,268.012 395.388,271.012 393.5,273.5C 393.489,270.999 392.822,270.832 391.5,273C 389.19,273.497 386.857,273.663 384.5,273.5C 383.624,273.631 382.957,273.298 382.5,272.5C 379.03,267.654 378.697,262.654 381.5,257.5C 385.463,256.56 389.463,256.393 393.5,257C 394.756,257.417 395.423,258.25 395.5,259.5 Z"/></g>
<g><path style="opacity:0.959" fill="#008cda" d="M 405.5,256.5 C 406.117,262.598 405.45,268.265 403.5,273.5C 402.883,267.402 403.55,261.735 405.5,256.5 Z"/></g>
<g><path style="opacity:0.995" fill="#7dc8de" d="M 405.5,256.5 C 406.814,258.915 407.481,261.748 407.5,265C 407.333,267.833 407.167,270.667 407,273.5C 405.708,274.791 404.542,274.791 403.5,273.5C 405.45,268.265 406.117,262.598 405.5,256.5 Z"/></g>
<g><path style="opacity:0.813" fill="#198fda" d="M 413.5,256.5 C 417.649,255.92 421.316,256.586 424.5,258.5C 421.5,258.5 418.5,258.5 415.5,258.5C 415.216,260.415 415.549,262.081 416.5,263.5C 416.833,263.5 417.167,263.5 417.5,263.5C 417.735,264.097 418.235,264.43 419,264.5C 420,263.833 421,263.167 422,262.5C 423.03,262.836 423.53,263.503 423.5,264.5C 423.5,264.833 423.5,265.167 423.5,265.5C 420.833,265.5 418.167,265.5 415.5,265.5C 415.5,267.5 415.5,269.5 415.5,271.5C 418.5,271.5 421.5,271.5 424.5,271.5C 424.5,272.167 424.5,272.833 424.5,273.5C 420.833,273.5 417.167,273.5 413.5,273.5C 413.5,267.833 413.5,262.167 413.5,256.5 Z"/></g>
<g><path style="opacity:0.932" fill="#2595da" d="M 440.5,256.5 C 441.167,257.833 442.167,258.833 443.5,259.5C 444.239,259.369 444.906,259.536 445.5,260C 444.584,260.278 443.918,260.778 443.5,261.5C 442.5,261.5 441.5,261.5 440.5,261.5C 440.5,261.167 440.5,260.833 440.5,260.5C 438.989,258.559 436.989,258.059 434.5,259C 433.2,260.579 433.534,261.745 435.5,262.5C 437.657,263.407 439.99,264.073 442.5,264.5C 443.167,264.5 443.5,264.833 443.5,265.5C 443.5,267.5 443.5,269.5 443.5,271.5C 439.6,273.975 435.6,273.975 431.5,271.5C 431.5,270.5 431.5,269.5 431.5,268.5C 433.062,268.733 434.395,269.4 435.5,270.5C 437.167,270.5 438.833,270.5 440.5,270.5C 441.791,269.458 441.791,268.292 440.5,267C 437.31,266.14 434.31,264.974 431.5,263.5C 431.244,261.208 431.577,259.041 432.5,257C 435.146,256.503 437.813,256.336 440.5,256.5 Z"/></g>
<g><path style="opacity:0.067" fill="#8acfdf" d="M 440.5,256.5 C 442.5,256.5 443.5,257.5 443.5,259.5C 442.167,258.833 441.167,257.833 440.5,256.5 Z"/></g>
<g><path style="opacity:0.235" fill="#95d5e0" d="M 71.5,257.5 C 72.8333,257.5 73.5,258.167 73.5,259.5C 72.5,259.167 71.8333,258.5 71.5,257.5 Z"/></g>
<g><path style="opacity:0.986" fill="#1990da" d="M 115.5,257.5 C 128.833,257.5 142.167,257.5 155.5,257.5C 155.007,259.806 154.674,262.139 154.5,264.5C 154.5,264.833 154.5,265.167 154.5,265.5C 153.13,267.25 152.13,269.25 151.5,271.5C 151.473,273.199 150.806,274.533 149.5,275.5C 148.512,276.795 147.512,278.128 146.5,279.5C 146.672,280.492 146.338,281.158 145.5,281.5C 143.833,282.5 142.5,283.833 141.5,285.5C 140.833,286.167 140.167,286.833 139.5,287.5C 137.596,287.738 136.262,288.738 135.5,290.5C 133.326,290.75 131.659,291.75 130.5,293.5C 130.167,293.5 129.833,293.5 129.5,293.5C 126.982,294.264 124.649,295.264 122.5,296.5C 122.167,296.5 121.833,296.5 121.5,296.5C 118.933,296.721 116.599,297.388 114.5,298.5C 108.963,299.762 103.297,299.762 97.5,298.5C 95.9724,297.691 94.3057,297.024 92.5,296.5C 94.5822,293.171 96.2488,289.505 97.5,285.5C 108.938,285.729 119.605,283.062 129.5,277.5C 130.947,275.597 132.614,273.93 134.5,272.5C 125.184,271.668 115.851,271.168 106.5,271C 108.903,266.063 111.903,261.563 115.5,257.5 Z"/></g>
<g><path style="opacity:0.549" fill="#92d4df" d="M 332.5,257.5 C 333.833,257.5 334.5,258.167 334.5,259.5C 333.5,259.167 332.833,258.5 332.5,257.5 Z"/></g>
<g><path style="opacity:0.216" fill="#a0dce0" d="M 371.5,257.5 C 372.833,257.5 373.5,258.167 373.5,259.5C 372.5,259.167 371.833,258.5 371.5,257.5 Z"/></g>
<g><path style="opacity:0.798" fill="#8bd1df" d="M 219.5,256.5 C 220.552,258.256 222.219,258.923 224.5,258.5C 224.5,259.167 224.5,259.833 224.5,260.5C 222.621,259.659 220.621,259.325 218.5,259.5C 218.263,258.209 218.596,257.209 219.5,256.5 Z"/></g>
<g><path style="opacity:0.982" fill="#83ccdf" d="M 250.5,256.5 C 251.404,257.209 251.737,258.209 251.5,259.5C 249.473,259.338 247.473,259.505 245.5,260C 244.027,260.71 243.36,261.876 243.5,263.5C 241.744,262.448 241.077,260.781 241.5,258.5C 245.012,259.055 248.012,258.388 250.5,256.5 Z"/></g>
<g><path style="opacity:0.98" fill="#8fd2df" d="M 369.5,260.5 C 367.215,259.454 364.882,259.454 362.5,260.5C 363.134,259.053 364.301,258.387 366,258.5C 367.699,258.387 368.866,259.053 369.5,260.5 Z"/></g>
<g><path style="opacity:0.994" fill="#6dc2de" d="M 424.5,258.5 C 424.5,259.167 424.167,259.5 423.5,259.5C 421.167,259.5 418.833,259.5 416.5,259.5C 416.5,260.833 416.5,262.167 416.5,263.5C 415.549,262.081 415.216,260.415 415.5,258.5C 418.5,258.5 421.5,258.5 424.5,258.5 Z"/></g>
<g><path style="opacity:0.16" fill="#96d6e0" d="M 440.5,260.5 C 438.219,260.077 436.552,260.744 435.5,262.5C 433.534,261.745 433.2,260.579 434.5,259C 436.989,258.059 438.989,258.559 440.5,260.5 Z"/></g>
<g><path style="opacity:0.408" fill="#98d7e0" d="M 98.5,258.5 C 98.5,259.833 97.8333,260.5 96.5,260.5C 96.8333,259.5 97.5,258.833 98.5,258.5 Z"/></g>
<g><path style="opacity:0.534" fill="#7cc8df" d="M 115.5,257.5 C 128.99,256.504 142.656,256.171 156.5,256.5C 157.036,259.698 156.369,262.365 154.5,264.5C 154.674,262.139 155.007,259.806 155.5,257.5C 142.167,257.5 128.833,257.5 115.5,257.5 Z"/></g>
<g><path style="opacity:0.996" fill="#7ec9df" d="M 233.5,256.5 C 234.404,257.209 234.737,258.209 234.5,259.5C 232.833,259.5 231.167,259.5 229.5,259.5C 229.666,264.179 229.499,268.845 229,273.5C 227.644,274.38 226.144,274.714 224.5,274.5C 224.5,269.833 224.5,265.167 224.5,260.5C 224.5,259.833 224.5,259.167 224.5,258.5C 225.166,263.349 225.833,268.349 226.5,273.5C 227.494,268.544 227.827,263.544 227.5,258.5C 230.082,258.975 232.082,258.308 233.5,256.5 Z"/></g>
<g><path style="opacity:0.199" fill="#9ad8e0" d="M 267.5,260.5 C 265.331,259.918 262.998,259.918 260.5,260.5C 261.134,259.053 262.301,258.387 264,258.5C 265.699,258.387 266.866,259.053 267.5,260.5 Z"/></g>
<g><path style="opacity:0.009" fill="#abe2e0" d="M 288.5,259.5 C 288.5,260.833 288.5,262.167 288.5,263.5C 287.5,263.5 286.5,263.5 285.5,263.5C 286.659,262.26 287.659,260.926 288.5,259.5 Z"/></g>
<g><path style="opacity:0.357" fill="#a7dfe0" d="M 304.5,259.5 C 306.048,259.821 306.715,260.821 306.5,262.5C 305.599,261.71 304.932,260.71 304.5,259.5 Z"/></g>
<g><path style="opacity:0.247" fill="#abe2e0" d="M 423.5,259.5 C 421.735,260.461 419.735,260.795 417.5,260.5C 417.5,261.5 417.5,262.5 417.5,263.5C 417.167,263.5 416.833,263.5 416.5,263.5C 416.5,262.167 416.5,260.833 416.5,259.5C 418.833,259.5 421.167,259.5 423.5,259.5 Z"/></g>
<g><path style="opacity:0.008" fill="#9edae0" d="M 330.5,260.5 C 329.417,260.461 328.417,260.127 327.5,259.5C 323.992,261.415 322.659,264.415 323.5,268.5C 322.366,266.034 322.199,263.367 323,260.5C 325.621,257.86 328.121,257.86 330.5,260.5 Z"/></g>
<g><path style="opacity:0.004" fill="#a0dce0" d="M 391.5,260.5 C 389.227,258.961 387.227,259.294 385.5,261.5C 384.626,263.747 384.292,266.08 384.5,268.5C 383.366,266.034 383.199,263.367 384,260.5C 386.621,257.86 389.121,257.86 391.5,260.5 Z"/></g>
<g><path style="opacity:0.359" fill="#8ed1df" d="M 362.5,260.5 C 362.187,263.247 362.52,265.914 363.5,268.5C 364.524,269.853 365.857,270.52 367.5,270.5C 363.001,271.703 360.667,269.703 360.5,264.5C 360.34,262.645 361.007,261.312 362.5,260.5 Z"/></g>
<g><path style="opacity:0.245" fill="#9ddae0" d="M 395.5,259.5 C 396.451,260.919 396.784,262.585 396.5,264.5C 396.167,264.5 395.833,264.5 395.5,264.5C 393.833,264.5 392.167,264.5 390.5,264.5C 390.782,263.222 391.449,262.222 392.5,261.5C 394.179,261.715 395.179,261.048 395.5,259.5 Z"/></g>
<g><path style="opacity:0.186" fill="#9cd9e0" d="M 440.5,261.5 C 441.5,261.5 442.5,261.5 443.5,261.5C 442.89,262.391 442.557,263.391 442.5,264.5C 439.99,264.073 437.657,263.407 435.5,262.5C 437.415,262.784 439.081,262.451 440.5,261.5 Z"/></g>
<g><path style="opacity:0.004" fill="#abe2e0" d="M 335.5,262.5 C 336.649,262.791 337.316,263.624 337.5,265C 337.316,266.376 336.649,267.209 335.5,267.5C 335.5,265.833 335.5,264.167 335.5,262.5 Z"/></g>
<g><path style="opacity:0.228" fill="#9cd9e0" d="M 306.5,268.5 C 305.504,268.586 304.671,268.252 304,267.5C 303.503,269.81 303.337,272.143 303.5,274.5C 301.585,274.784 299.919,274.451 298.5,273.5C 299.5,273.5 300.5,273.5 301.5,273.5C 301.334,269.154 301.501,264.821 302,260.5C 303.259,263.356 304.759,266.023 306.5,268.5 Z"/></g>
<g><path style="opacity:0.194" fill="#9edae0" d="M 96.5,261.5 C 96.6458,264.771 95.3125,267.105 92.5,268.5C 93.0787,265.669 94.412,263.336 96.5,261.5 Z"/></g>
<g><path style="opacity:0.082" fill="#9edae0" d="M 307.5,264.5 C 308.167,264.5 308.833,264.5 309.5,264.5C 309.395,269.66 308.728,269.66 307.5,264.5 Z"/></g>
<g><path style="opacity:0.958" fill="#57b3dd" d="M 395.5,264.5 C 395.833,264.5 396.167,264.5 396.5,264.5C 396.5,267.833 396.5,271.167 396.5,274.5C 395.209,274.737 394.209,274.404 393.5,273.5C 395.388,271.012 396.055,268.012 395.5,264.5 Z"/></g>
<g><path style="opacity:0.169" fill="#96d6e0" d="M 431.5,263.5 C 434.31,264.974 437.31,266.14 440.5,267C 441.791,268.292 441.791,269.458 440.5,270.5C 440.441,268.278 439.275,267.278 437,267.5C 436.167,267.667 435.333,267.833 434.5,268C 435.252,268.671 435.586,269.504 435.5,270.5C 434.395,269.4 433.062,268.733 431.5,268.5C 432.562,266.901 432.562,265.234 431.5,263.5 Z M 440.5,270.5 C 438.833,270.5 437.167,270.5 435.5,270.5C 435.586,269.504 435.252,268.671 434.5,268C 435.333,267.833 436.167,267.667 437,267.5C 439.275,267.278 440.441,268.278 440.5,270.5 Z"/></g>
<g><path style="opacity:0.327" fill="#98d6e0" d="M 443.5,265.5 C 444.693,265.97 445.36,266.97 445.5,268.5C 445.36,270.03 444.693,271.03 443.5,271.5C 443.5,269.5 443.5,267.5 443.5,265.5 Z"/></g>
<g><path style="opacity:0.551" fill="#abe2e0" d="M 249.5,266.5 C 247.735,267.461 245.735,267.795 243.5,267.5C 243.5,268.5 243.5,269.5 243.5,270.5C 242.566,269.432 242.232,268.099 242.5,266.5C 244.833,266.5 247.167,266.5 249.5,266.5 Z"/></g>
<g><path style="opacity:0.996" fill="#61badd" d="M 288.5,266.5 C 286.167,266.5 283.833,266.5 281.5,266.5C 281.5,268.833 281.5,271.167 281.5,273.5C 280.5,274.833 279.5,274.833 278.5,273.5C 280.369,271.365 281.036,268.698 280.5,265.5C 283.385,265.194 286.052,265.527 288.5,266.5 Z"/></g>
<g><path style="opacity:0.372" fill="#abe2e0" d="M 288.5,266.5 C 288.5,267.167 288.5,267.833 288.5,268.5C 286.621,267.659 284.621,267.325 282.5,267.5C 282.795,269.735 282.461,271.735 281.5,273.5C 281.5,271.167 281.5,268.833 281.5,266.5C 283.833,266.5 286.167,266.5 288.5,266.5 Z"/></g>
<g><path style="opacity:0.619" fill="#aae1e0" d="M 423.5,264.5 C 424.404,265.209 424.737,266.209 424.5,267.5C 422.473,267.338 420.473,267.505 418.5,268C 417.748,268.671 417.414,269.504 417.5,270.5C 416.566,269.432 416.232,268.099 416.5,266.5C 419.059,266.802 421.393,266.468 423.5,265.5C 423.5,265.167 423.5,264.833 423.5,264.5 Z"/></g>
<g><path style="opacity:0.009" fill="#98d7e0" d="M 389.5,266.5 C 390.978,266.238 392.311,266.571 393.5,267.5C 393.376,268.107 393.043,268.44 392.5,268.5C 390.821,268.715 389.821,268.048 389.5,266.5 Z"/></g>
<g><path style="opacity:0.992" fill="#94d5e0" d="M 154.5,265.5 C 154.614,268.216 153.614,270.216 151.5,271.5C 152.13,269.25 153.13,267.25 154.5,265.5 Z"/></g>
<g><path style="opacity:0.024" fill="#aae0e1" d="M 260.5,268.5 C 261.833,268.5 262.5,269.167 262.5,270.5C 261.5,270.167 260.833,269.5 260.5,268.5 Z"/></g>
<g><path style="opacity:0.004" fill="#8dd1df" d="M 319.5,260.5 C 319.253,263.939 319.586,267.272 320.5,270.5C 319.223,269.306 318.556,267.64 318.5,265.5C 318.507,263.631 318.84,261.964 319.5,260.5 Z"/></g>
<g><path style="opacity:0.004" fill="#98d8e0" d="M 331.5,268.5 C 331.167,269.5 330.5,270.167 329.5,270.5C 329.5,269.167 330.167,268.5 331.5,268.5 Z"/></g>
<g><path style="opacity:0.039" fill="#8ed2df" d="M 357.5,267.5 C 358.401,268.29 359.068,269.29 359.5,270.5C 357.952,270.179 357.285,269.179 357.5,267.5 Z"/></g>
<g><path style="opacity:0.012" fill="#80cbdf" d="M 370.5,268.5 C 370.167,269.5 369.5,270.167 368.5,270.5C 368.5,269.167 369.167,268.5 370.5,268.5 Z"/></g>
<g><path style="opacity:0.055" fill="#95d5e0" d="M 92.5,268.5 C 92.7148,270.179 92.0481,271.179 90.5,271.5C 90.427,269.973 91.0937,268.973 92.5,268.5 Z"/></g>
<g><path style="opacity:0.291" fill="#44aedc" d="M 249.5,265.5 C 249.5,265.833 249.5,266.167 249.5,266.5C 247.167,266.5 244.833,266.5 242.5,266.5C 242.232,268.099 242.566,269.432 243.5,270.5C 245.833,270.5 248.167,270.5 250.5,270.5C 250.5,270.833 250.5,271.167 250.5,271.5C 247.5,271.5 244.5,271.5 241.5,271.5C 241.5,269.5 241.5,267.5 241.5,265.5C 244.167,265.5 246.833,265.5 249.5,265.5 Z"/></g>
<g><path style="opacity:0.196" fill="#6cbede" d="M 344.5,256.5 C 346.436,260.715 347.103,265.381 346.5,270.5C 348.5,270.5 350.5,270.5 352.5,270.5C 352.5,270.833 352.5,271.167 352.5,271.5C 349.833,271.5 347.167,271.5 344.5,271.5C 344.5,266.5 344.5,261.5 344.5,256.5 Z"/></g>
<g><path style="opacity:0.247" fill="#abe2e0" d="M 352.5,270.5 C 353.434,271.568 353.768,272.901 353.5,274.5C 349.629,274.815 345.962,274.482 342.5,273.5C 346.329,274.069 349.663,273.402 352.5,271.5C 352.5,271.167 352.5,270.833 352.5,270.5 Z"/></g>
<g><path style="opacity:0.375" fill="#9ad8e0" d="M 374.5,267.5 C 374.167,269.5 373.833,271.5 373.5,273.5C 369.684,274.62 366.017,274.62 362.5,273.5C 368.247,274.627 372.247,272.627 374.5,267.5 Z"/></g>
<g><path style="opacity:0.071" fill="#7ec9de" d="M 384.5,268.5 C 386.5,269.167 388.5,269.833 390.5,270.5C 387.92,272.016 385.92,271.349 384.5,268.5 Z"/></g>
<g><path style="opacity:0.37" fill="#44aedc" d="M 423.5,265.5 C 421.393,266.468 419.059,266.802 416.5,266.5C 416.232,268.099 416.566,269.432 417.5,270.5C 420.059,270.198 422.393,270.532 424.5,271.5C 421.5,271.5 418.5,271.5 415.5,271.5C 415.5,269.5 415.5,267.5 415.5,265.5C 418.167,265.5 420.833,265.5 423.5,265.5 Z"/></g>
<g><path style="opacity:0.047" fill="#a3dde0" d="M 334.5,270.5 C 334.5,271.5 334.5,272.5 334.5,273.5C 333.5,273.5 332.5,273.5 331.5,273.5C 332.167,272.167 333.167,271.167 334.5,270.5 Z"/></g>
<g><path style="opacity:0.492" fill="#9fdbe0" d="M 90.5,271.5 C 90.7409,274.034 89.7409,275.7 87.5,276.5C 88.2632,274.632 89.2632,272.965 90.5,271.5 Z"/></g>
<g><path style="opacity:0.431" fill="#9ddae0" d="M 359.5,271.5 C 360.71,271.932 361.71,272.599 362.5,273.5C 360.821,273.715 359.821,273.048 359.5,271.5 Z"/></g>
<g><path style="opacity:0.129" fill="#aae1e1" d="M 250.5,270.5 C 251.434,271.568 251.768,272.901 251.5,274.5C 247.298,274.817 243.298,274.483 239.5,273.5C 243.649,274.08 247.316,273.414 250.5,271.5C 250.5,271.167 250.5,270.833 250.5,270.5 Z"/></g>
<g><path style="opacity:0.384" fill="#95d6e0" d="M 270.5,271.5 C 270.423,272.75 269.756,273.583 268.5,274C 265.633,274.801 262.966,274.634 260.5,273.5C 262.966,274.634 265.633,274.801 268.5,274C 269.756,273.583 270.423,272.75 270.5,271.5 Z"/></g>
<g><path style="opacity:0.039" fill="#99d8e0" d="M 393.5,273.5 C 390.396,274.775 387.396,274.775 384.5,273.5C 386.857,273.663 389.19,273.497 391.5,273C 392.822,270.832 393.489,270.999 393.5,273.5 Z"/></g>
<g><path style="opacity:0.136" fill="#94d4e0" d="M 413.5,256.5 C 413.5,262.167 413.5,267.833 413.5,273.5C 417.167,273.5 420.833,273.5 424.5,273.5C 420.702,274.483 416.702,274.817 412.5,274.5C 412.177,268.31 412.51,262.31 413.5,256.5 Z"/></g>
<g><path style="opacity:0.624" fill="#8ccfdf" d="M 431.5,271.5 C 435.6,273.975 439.6,273.975 443.5,271.5C 443.586,272.496 443.252,273.329 442.5,274C 439.287,274.703 436.121,274.536 433,273.5C 431.97,273.164 431.47,272.497 431.5,271.5 Z"/></g>
<g><path style="opacity:0.016" fill="#a0dbe0" d="M 149.5,275.5 C 149.912,277.973 148.912,279.306 146.5,279.5C 147.512,278.128 148.512,276.795 149.5,275.5 Z"/></g>
<g><path style="opacity:0.643" fill="#97d7e0" d="M 87.5,276.5 C 87.7148,278.179 87.0481,279.179 85.5,279.5C 85.9321,278.29 86.5987,277.29 87.5,276.5 Z"/></g>
<g><path style="opacity:0.243" fill="#a8e0e1" d="M 145.5,281.5 C 145.512,284.142 144.179,285.475 141.5,285.5C 142.5,283.833 143.833,282.5 145.5,281.5 Z"/></g>
<g><path style="opacity:0.831" fill="#9edae0" d="M 85.5,280.5 C 85.4456,282.632 84.4456,283.965 82.5,284.5C 83.0256,282.77 84.0256,281.436 85.5,280.5 Z"/></g>
<g><path style="opacity:0.529" fill="#9bd8e0" d="M 82.5,285.5 C 81.962,287.117 81.6287,288.784 81.5,290.5C 77.693,291.226 75.0263,289.893 73.5,286.5C 75.3936,287.048 77.0603,288.048 78.5,289.5C 79.84,288.133 81.1733,286.8 82.5,285.5 Z"/></g>
<g><path style="opacity:0.835" fill="#9fdbe0" d="M 139.5,287.5 C 138.965,289.446 137.632,290.446 135.5,290.5C 136.262,288.738 137.596,287.738 139.5,287.5 Z"/></g>
<g><path style="opacity:0.465" fill="#9edae0" d="M 135.5,290.5 C 134.514,292.408 132.848,293.408 130.5,293.5C 131.659,291.75 133.326,290.75 135.5,290.5 Z"/></g>
<g><path style="opacity:0.004" fill="#abe2e0" d="M 190.5,293.5 C 193.167,294.5 193.167,295.5 190.5,296.5C 190.5,295.5 190.5,294.5 190.5,293.5 Z"/></g>
<g><path style="opacity:0.024" fill="#9dd9e0" d="M 129.5,293.5 C 127.91,295.821 125.577,296.821 122.5,296.5C 124.649,295.264 126.982,294.264 129.5,293.5 Z"/></g>
<g><path style="opacity:0.348" fill="#a3dde0" d="M 92.5,296.5 C 94.3057,297.024 95.9724,297.691 97.5,298.5C 95.2188,298.923 93.5521,298.256 92.5,296.5 Z"/></g>
<g><path style="opacity:0.614" fill="#8fd1df" d="M 121.5,296.5 C 119.721,298.344 117.388,299.01 114.5,298.5C 116.599,297.388 118.933,296.721 121.5,296.5 Z"/></g>
</svg>
